<svg xmlns="http://www.w3.org/2000/svg" viewBox="0 0 64 64" role="img" aria-label="Dragonbone Blade">
  <defs>
    <linearGradient id="bone" x1="0%" x2="100%" y1="0%" y2="100%">
      <stop offset="0%" stop-color="#fdf6e3" />
      <stop offset="100%" stop-color="#d4c4a8" />
    </linearGradient>
    <linearGradient id="dragonEssence" x1="0%" x2="100%" y1="0%" y2="100%">
      <stop offset="0%" stop-color="#ef4444" />
      <stop offset="100%" stop-color="#991b1b" />
    </linearGradient>
    <linearGradient id="agedBone" x1="0%" x2="100%" y1="0%" y2="0%">
      <stop offset="0%" stop-color="#a89f91" />
      <stop offset="50%" stop-color="#c9bba6" />
      <stop offset="100%" stop-color="#8b8275" />
    </linearGradient>
  </defs>
  <rect x="27" y="6" width="10" height="32" rx="3" fill="url(#bone)" />
  <path d="M27 10h10M27 18h10M27 26h10" stroke="#bfa88c" stroke-width="1" opacity="0.5" />
  <polygon points="32,2 38,9 26,9" fill="#f5f5dc" />
  <circle cx="32" cy="14" r="3" fill="url(#dragonEssence)" />
  <rect x="18" y="36" width="28" height="8" rx="2" fill="url(#agedBone)" />
  <rect x="28" y="44" width="8" height="14" rx="3" fill="#5c4a3d" />
  <circle cx="32" cy="59" r="3" fill="url(#dragonEssence)" />
  <path d="M29 40c0-2 1.5-3 3-3s3 1 3 3" stroke="#ef4444" stroke-width="1.5" fill="none" opacity="0.8" />
</svg>
